<svg width="413" height="160" viewBox="0 0 413 160" fill="none" xmlns="http://www.w3.org/2000/svg">
<g clip-path="url(#clip0_367_647)">
<path d="M172.43 12.0049H209.926V26.1474H190.104V88.1569H172.43V12.0049Z" fill="#56AA9C"/>
<path d="M258.454 26.1474H240.78V88.1569H223.105V12.0049H276.129V88.1569H258.454V26.1474Z" fill="#56AA9C"/>
<path d="M324.304 26.1474H306.63V88.1569H288.955V12.0049H341.978V88.1569H324.304V26.1474Z" fill="#56AA9C"/>
<path d="M354.927 12.0049H372.601V74.0144H390.276V12.0049H407.95V74.0144H412.999V100.124H396.588V88.1569H354.927V12.0049Z" fill="#56AA9C"/>
<path d="M172.527 97.4902H178.362V100.167H175.28V111.902H172.532V97.4902H172.527Z" fill="#969495"/>
<path d="M178.947 104.696C178.947 100.269 181.875 97.2852 185.902 97.2852C189.929 97.2852 192.893 100.269 192.893 104.696C192.893 109.123 189.929 112.112 185.902 112.112C181.875 112.112 178.947 108.918 178.947 104.696ZM190.042 104.696C190.042 102.078 188.373 100.166 185.917 100.166C183.462 100.166 181.793 102.084 181.793 104.696C181.793 107.308 183.462 109.225 185.917 109.225C188.373 109.225 190.042 107.308 190.042 104.696Z" fill="#969495"/>
<path d="M194.851 97.4902H197.013C200.742 97.4902 202.807 99.0951 202.807 102.224C202.807 104.696 201.451 106.958 197.604 106.958V111.902H194.856V97.4902H194.851ZM199.956 102.224C199.956 100.883 199.129 100.167 197.599 100.167V104.287C199.129 104.287 199.956 103.565 199.956 102.23V102.224Z" fill="#969495"/>
<path d="M203.885 104.696C203.885 100.269 206.813 97.2852 210.839 97.2852C214.866 97.2852 217.83 100.269 217.83 104.696C217.83 109.123 214.866 112.112 210.839 112.112C206.813 112.112 203.885 108.918 203.885 104.696ZM214.979 104.696C214.979 102.078 213.31 100.166 210.855 100.166C208.4 100.166 206.73 102.084 206.73 104.696C206.73 107.308 208.4 109.225 210.855 109.225C213.31 109.225 214.979 107.308 214.979 104.696Z" fill="#969495"/>
<path d="M220.065 107.561L220.399 97.4902H227.467V109.225H228.252V114.169H225.7V111.902H221.262V114.169H218.709V109.225C219.495 109.225 220.024 108.773 220.065 107.556V107.561ZM224.816 109.231V100.129H222.952L222.715 107.561C222.695 108.218 222.577 108.778 222.402 109.231H224.816Z" fill="#969495"/>
<path d="M229.629 104.696C229.629 100.166 232.654 97.2852 236.779 97.2852C237.349 97.2852 237.78 97.3282 238.232 97.4683V100.333C237.78 100.21 237.39 100.166 236.799 100.166C234.247 100.166 232.48 101.917 232.48 104.696C232.48 107.475 234.247 109.225 236.799 109.225C237.39 109.225 237.78 109.182 238.232 109.058V111.88C237.78 112.063 237.328 112.106 236.779 112.106C232.654 112.106 229.629 109.015 229.629 104.69V104.696Z" fill="#969495"/>
<path d="M243.862 105.709H243.035V111.908H240.385V97.4961H243.035V103.038H243.939L245.629 97.4961H248.357L246.096 104.373L248.649 111.908H245.783L243.857 105.709H243.862Z" fill="#969495"/>
<path d="M249.147 104.696C249.147 100.269 252.075 97.2852 256.102 97.2852C260.129 97.2852 263.093 100.269 263.093 104.696C263.093 109.123 260.129 112.112 256.102 112.112C252.075 112.112 249.147 108.918 249.147 104.696ZM260.242 104.696C260.242 102.078 258.573 100.166 256.118 100.166C253.662 100.166 251.993 102.084 251.993 104.696C251.993 107.308 253.662 109.225 256.118 109.225C258.573 109.225 260.242 107.308 260.242 104.696Z" fill="#969495"/>
<path d="M265.05 97.4903H267.603V104.594L272.729 97.2856H273.119V111.907H270.566V104.804L265.44 112.112H265.05V97.4903ZM266.524 94.3828H268.625C268.625 94.8567 269 95.1637 269.488 95.1637C269.976 95.1637 270.351 94.8567 270.351 94.3828H272.451C272.451 96.2139 271.075 97.0164 269.488 97.0164C267.901 97.0164 266.524 96.2139 266.524 94.3828Z" fill="#969495"/>
<path d="M284.902 100.167H282.154V111.902H279.406V97.4902H287.655V111.902H284.907V100.167H284.902Z" fill="#969495"/>
<path d="M289.612 104.696C289.612 100.166 292.638 97.2852 296.762 97.2852C297.332 97.2852 297.764 97.3282 298.216 97.4683V100.333C297.764 100.21 297.373 100.166 296.783 100.166C294.23 100.166 292.463 101.917 292.463 104.696C292.463 107.475 294.23 109.225 296.783 109.225C297.373 109.225 297.764 109.182 298.216 109.058V111.88C297.764 112.063 297.312 112.106 296.762 112.106C292.638 112.106 289.612 109.015 289.612 104.69V104.696Z" fill="#969495"/>
<path d="M300.373 97.4898H302.926V104.593L308.052 97.2852H308.442V111.907H305.89V104.803L300.763 112.112H300.373V97.4898Z" fill="#969495"/>
<path d="M312.865 104.696L310.02 97.4902H312.886L314.478 102.041L316.05 97.4902H318.839L316.127 104.615L319.034 111.907H316.086L314.493 107.297L312.865 111.907H310.02L312.865 104.702V104.696Z" fill="#969495"/>
<path d="M319.619 104.696C319.619 100.269 322.547 97.2852 326.574 97.2852C330.601 97.2852 333.565 100.269 333.565 104.696C333.565 109.123 330.601 112.112 326.574 112.112C322.547 112.112 319.619 108.918 319.619 104.696ZM330.714 104.696C330.714 102.078 329.044 100.166 326.589 100.166C324.134 100.166 322.465 102.084 322.465 104.696C322.465 107.308 324.134 109.225 326.589 109.225C329.044 109.225 330.714 107.308 330.714 104.696Z" fill="#969495"/>
<path d="M335.722 107.868L336.056 97.4902H343.124V111.902H340.473V100.124H338.609L338.373 107.868C338.275 111.39 336.703 112.01 334.346 112.01V109.333C335.132 109.333 335.681 108.881 335.722 107.874V107.868Z" fill="#969495"/>
<path d="M345.086 104.696C345.086 100.269 348.014 97.2852 352.041 97.2852C356.068 97.2852 359.031 100.269 359.031 104.696C359.031 109.123 356.068 112.112 352.041 112.112C348.014 112.112 345.086 108.918 345.086 104.696ZM356.181 104.696C356.181 102.078 354.511 100.166 352.056 100.166C349.601 100.166 347.932 102.084 347.932 104.696C347.932 107.308 349.601 109.225 352.056 109.225C354.511 109.225 356.181 107.308 356.181 104.696Z" fill="#969495"/>
<path d="M360.993 97.4902H366.828V100.167H363.746V111.902H360.998V97.4902H360.993Z" fill="#969495"/>
<path d="M367.414 104.696C367.414 100.269 370.342 97.2852 374.369 97.2852C378.396 97.2852 381.359 100.269 381.359 104.696C381.359 109.123 378.396 112.112 374.369 112.112C370.342 112.112 367.414 108.918 367.414 104.696ZM378.509 104.696C378.509 102.078 376.839 100.166 374.384 100.166C371.929 100.166 370.26 102.084 370.26 104.696C370.26 107.308 371.929 109.225 374.384 109.225C376.839 109.225 378.509 107.308 378.509 104.696Z" fill="#969495"/>
<path d="M382.73 105.375H387.697V107.847H382.73V105.375Z" fill="#969495"/>
<path d="M178.023 120.552H175.275V132.287H172.527V117.875H180.776V132.287H178.028V120.552H178.023Z" fill="#969495"/>
<path d="M183.129 117.875H189.513V120.552H185.882V123.417H188.83V126.093H185.882V129.616H189.811V132.292H183.134V117.88L183.129 117.875Z" fill="#969495"/>
<path d="M192.143 127.946L192.477 117.875H199.545V129.61H200.331V134.554H197.778V132.287H193.34V134.554H190.787V129.61C191.573 129.61 192.102 129.158 192.143 127.941V127.946ZM196.894 129.616V120.514H195.03L194.794 127.946C194.773 128.603 194.655 129.163 194.48 129.616H196.894Z" fill="#969495"/>
<path d="M207.321 117.67H207.712L214.014 132.292H211.086L210.223 130.132H204.722L203.859 132.292H201.014L207.316 117.67H207.321ZM209.186 127.552L207.475 123.271L205.765 127.552H209.181H209.186Z" fill="#969495"/>
<path d="M215.293 117.875H221.128V120.552H218.046V132.287H215.298V117.875H215.293Z" fill="#969495"/>
<path d="M221.714 125.08C221.714 120.654 224.642 117.67 228.669 117.67C232.696 117.67 235.659 120.654 235.659 125.08C235.659 129.507 232.696 132.496 228.669 132.496C224.642 132.496 221.714 129.303 221.714 125.08ZM232.809 125.08C232.809 122.463 231.139 120.551 228.684 120.551C226.229 120.551 224.559 122.468 224.559 125.08C224.559 127.692 226.229 129.61 228.684 129.61C231.139 129.61 232.809 127.692 232.809 125.08Z" fill="#969495"/>
<path d="M237.621 117.875H243.456V120.552H240.374V132.287H237.626V117.875H237.621Z" fill="#969495"/>
<path d="M245.022 117.875H247.575V124.978L252.701 117.67H253.092V132.292H250.539V125.188L245.413 132.496H245.022V117.875Z" fill="#969495"/>
<path d="M254.957 117.875H257.705V121.171C257.705 123.826 258.393 124.693 260.258 124.941V117.88H263.006V132.292H260.258V127.661C256.39 127.375 254.957 125.356 254.957 121.176V117.88V117.875Z" fill="#969495"/>
<path d="M265.363 117.875H271.748V120.552H268.116V123.417H271.065V126.093H268.116V129.616H272.046V132.292H265.368V117.88L265.363 117.875Z" fill="#969495"/>
<path d="M273.217 125.08C273.217 120.551 276.242 117.67 280.367 117.67C280.937 117.67 281.368 117.713 281.82 117.853V120.718C281.368 120.594 280.978 120.551 280.387 120.551C277.834 120.551 276.068 122.302 276.068 125.08C276.068 127.859 277.834 129.61 280.387 129.61C280.978 129.61 281.368 129.567 281.82 129.443V132.265C281.368 132.448 280.916 132.491 280.367 132.491C276.242 132.491 273.217 129.4 273.217 125.075V125.08Z" fill="#969495"/>
<path d="M287.455 126.088H286.628V132.287H283.978V117.875H286.628V123.417H287.532L289.222 117.875H291.949L289.689 124.752L292.242 132.287H289.376L287.45 126.088H287.455Z" fill="#969495"/>
<path d="M293.716 117.875H296.269V124.978L301.395 117.67H301.785V132.292H299.232V125.188L294.106 132.496H293.716V117.875Z" fill="#969495"/>
<path d="M304.144 117.875H306.696V124.979L311.823 117.67H312.213V132.292H309.66V125.189L304.534 132.497H304.144V117.875ZM305.618 114.768H307.719C307.719 115.242 308.093 115.548 308.581 115.548C309.069 115.548 309.444 115.242 309.444 114.768H311.545C311.545 116.599 310.169 117.401 308.581 117.401C306.994 117.401 305.618 116.599 305.618 114.768Z" fill="#969495"/>
<path d="M318.499 117.875H321.247V129.61H323.995V117.875H326.743V129.61H327.529V134.554H324.976V132.287H318.494V117.875H318.499Z" fill="#969495"/>
<path d="M329.296 117.875H335.681V120.552H332.049V123.417H334.997V126.093H332.049V129.616H335.978V132.292H329.301V117.88L329.296 117.875Z" fill="#969495"/>
<path d="M343.242 126.071H340.494V132.292H337.746V117.88H340.494V123.4H343.242V117.88H345.99V132.292H343.242V126.071Z" fill="#969495"/>
<path d="M350.114 120.552H347.562V117.875H355.415V120.552H352.862V132.287H350.114V120.552Z" fill="#969495"/>
<path d="M356.986 117.875H359.149C362.878 117.875 364.943 119.48 364.943 122.609C364.943 125.081 363.587 127.343 359.739 127.343V132.287H356.991V117.875H356.986ZM362.092 122.609C362.092 121.268 361.265 120.552 359.734 120.552V124.672C361.265 124.672 362.092 123.95 362.092 122.614V122.609Z" fill="#969495"/>
<path d="M80.8835 23.6322C81.7464 23.6322 81.7464 22.2266 80.8835 22.2266C80.0206 22.2266 80.0206 23.6322 80.8835 23.6322Z" fill="#57A99C"/>
<path d="M63.4917 50.3818C49.3357 44.1292 39.2991 54.8626 39.5662 69.8722C39.5662 82.7168 47.3376 94.5597 56.8709 102.444C62.7521 107.329 69.3781 111.557 76.1633 115.095C78.4541 116.264 80.822 117.395 83.1386 118.359L82.0805 121.983C66.2757 117.551 51.3132 110.619 38.5852 99.4713C32.2108 93.7519 27.0385 86.2013 25.2715 77.4174C23.2221 66.6032 25.3999 54.5934 32.5139 46.1326C39.2118 38.0112 50.8201 34.5375 60.302 38.8298C63.2914 40.1439 65.9572 42.0127 68.2018 44.4416L63.4917 50.3765V50.3818Z" fill="#EA616B"/>
<path d="M66.4504 53.0041C75.8963 38.4415 98.697 34.5424 113.505 42.2868C122.278 46.7892 128.088 55.6 129.659 65.7087C131.159 74.9396 128.601 84.2512 124.107 92.0711C115.858 106.057 104.445 116.726 91.8758 125.995C89.4206 127.788 86.9705 129.501 84.3561 131.138L82.3631 127.977C84.6026 126.167 86.8369 124.174 88.9788 122.166C102.046 109.423 117.296 91.9741 115.652 72.0044C115.37 69.1716 114.64 66.3926 113.531 63.7914C112.925 62.375 112.211 61.0071 111.256 59.8223C105.056 52.3471 94.8703 51.5231 85.6299 52.6379C80.9609 53.1388 76.2713 55.0829 72.3317 57.8457L72.157 57.9642L72.08 58.0181C72.08 58.0181 72.0543 58.0342 72.044 58.0396C72.0337 58.0396 72.0183 58.0558 72.0338 58.0289L66.4453 52.9987L66.4504 53.0041Z" fill="#56AA9C"/>
<path d="M26.5092 45.1845C30.4239 45.1845 33.5975 41.857 33.5975 37.7524C33.5975 33.6478 30.4239 30.3203 26.5092 30.3203C22.5944 30.3203 19.4209 33.6478 19.4209 37.7524C19.4209 41.857 22.5944 45.1845 26.5092 45.1845Z" fill="#EA616B"/>
<path d="M117.594 39.6752C123.185 39.6752 127.718 34.9228 127.718 29.0603C127.718 23.1978 123.185 18.4453 117.594 18.4453C112.002 18.4453 107.47 23.1978 107.47 29.0603C107.47 34.9228 112.002 39.6752 117.594 39.6752Z" fill="#56AA9C"/>
<path d="M151.53 0.0646269V0H120.054V0.102326C113.063 0.28005 102.754 1.22253 94.2895 4.83086C87.5967 7.68521 81.2892 12.9469 76.3325 17.9178C71.3759 12.9469 65.0786 7.68521 58.3858 4.83086C49.5409 1.06096 38.6722 0.193881 31.6969 0.0807836V0H0V144.937H55.3348V144.947C64.1695 144.947 70.5849 151.281 70.5849 160H82.0853C82.0853 151.281 88.4956 144.947 97.3354 144.947V144.937H152.639L152.65 0.0646269H151.535H151.53ZM97.3303 132.894C88.624 132.894 81.1505 136.702 76.3325 142.836C71.5145 136.702 64.041 132.894 55.3348 132.894H11.4902V12.1445H31.6969C37.7322 12.2522 46.9573 12.9738 54.0507 16.0005C63.7637 20.142 73.2764 31.3387 76.3325 35.3078C79.3938 31.3387 88.9117 20.142 98.6298 16.0005C105.733 12.9738 114.964 12.2522 121.004 12.1445H141.242L141.231 132.894H97.3303Z" fill="#EA616B"/>
</g>
<defs>
<clipPath id="clip0_367_647">
<rect width="413" height="160" fill="white"/>
</clipPath>
</defs>
</svg>
