<svg width="23" height="23" viewBox="0 0 23 23" fill="none" xmlns="http://www.w3.org/2000/svg">
<g clip-path="url(#clip0_445_584)">
<path d="M9.82292 3.35417C10.8771 3.35417 11.7396 4.21667 11.7396 5.27083C11.7396 6.325 10.8771 7.1875 9.82292 7.1875C8.76875 7.1875 7.90625 6.325 7.90625 5.27083C7.90625 4.21667 8.76875 3.35417 9.82292 3.35417ZM9.82292 12.9375C12.4104 12.9375 15.3813 14.1738 15.5729 14.8542H4.07292C4.29333 14.1642 7.245 12.9375 9.82292 12.9375ZM9.82292 1.4375C7.705 1.4375 5.98958 3.15292 5.98958 5.27083C5.98958 7.38875 7.705 9.10417 9.82292 9.10417C11.9408 9.10417 13.6562 7.38875 13.6562 5.27083C13.6562 3.15292 11.9408 1.4375 9.82292 1.4375ZM9.82292 11.0208C7.26417 11.0208 2.15625 12.305 2.15625 14.8542V16.7708H17.4896V14.8542C17.4896 12.305 12.3817 11.0208 9.82292 11.0208Z" fill="white"/>
</g>
<defs>
<clipPath id="clip0_445_584">
<rect width="23" height="23" fill="white"/>
</clipPath>
</defs>
</svg>
